# xmcd CD database file
#
# Track frame offsets:
#	150
#	18715
#	32148
#	53624
#	76437
#	96197
#	117525
#	134990
#	153340
#	168391
#
# Disc length: 2526 seconds
#
# Revision: 0
# Processed by: cddbd v1.5.1PL0 Copyright (c) Steve Scherf et al.
# Submitted via: CDex 1.51
#
DISCID=8709dc0a
DTITLE=西脇 唯 - 花明かり
DYEAR=2004
DGENRE=JPop
TTITLE0=フィオナ〜Happy Birthday To You〜
TTITLE1=キンモクセイの夜明け
TTITLE2=花明かりの道
TTITLE3=アネモネ〜Wind Flower〜
TTITLE4=蒲公英〜ダンデライアン〜
TTITLE5=忘れな草〜Forget me not Blue〜
TTITLE6=マロニエ
TTITLE7=月しぐれ
TTITLE8=かすみ草の花束をもって
TTITLE9=さくらんぼの実のなる頃（Le Temps Des Cerises）
EXTD=YEAR: 2004
EXTT0=
EXTT1=
EXTT2=
EXTT3=
EXTT4=
EXTT5=
EXTT6=
EXTT7=
EXTT8=
EXTT9=
PLAYORDER=
